<?xml version="1.0" encoding="UTF-8"?>
<!DOCTYPE svg PUBLIC "-//W3C//DTD SVG 1.1//EN" "http://www.w3.org/Graphics/SVG/1.1/DTD/svg11.dtd">
<svg xmlns="http://www.w3.org/2000/svg" version="1.1" width="607px" height="607px" style="shape-rendering:geometricPrecision; text-rendering:geometricPrecision; image-rendering:optimizeQuality; fill-rule:evenodd; clip-rule:evenodd" xmlns:xlink="http://www.w3.org/1999/xlink">
  <g><path fill="currentColor" d="M 128.5,-0.5 C 287.833,-0.5 447.167,-0.5 606.5,-0.5C 606.5,201.833 606.5,404.167 606.5,606.5C 473.167,606.5 339.833,606.5 206.5,606.5C 210.294,593.784 214.294,581.118 218.5,568.5C 333.831,567.5 449.165,567.167 564.5,567.5C 564.5,390.833 564.5,214.167 564.5,37.5C 433.167,37.5 301.833,37.5 170.5,37.5C 170.833,110.836 170.5,184.17 169.5,257.5C 156.398,251.282 143.065,245.615 129.5,240.5C 128.5,160.169 128.167,79.8361 128.5,-0.5 Z"/></g>
  <g><path fill="currentColor" d="M 495.5,101.5 C 494.508,101.328 493.842,101.662 493.5,102.5C 492.833,102.5 492.5,102.833 492.5,103.5C 491.833,103.5 491.5,103.833 491.5,104.5C 466.019,120.129 442.352,138.295 420.5,159C 370.816,206.997 329.983,261.497 298,322.5C 266.087,384.659 239.42,448.993 218,515.5C 208.195,545.749 198.695,576.082 189.5,606.5C 169.167,606.5 148.833,606.5 128.5,606.5C 138.794,561.784 153.961,518.784 174,477.5C 229.887,362.994 302.721,260.828 392.5,171C 425.444,139.369 461.778,112.369 501.5,90C 504.833,88.6667 508.167,87.3333 511.5,86C 508.086,85.7031 504.753,85.0365 501.5,84C 500.874,83.2496 500.374,82.4162 500,81.5C 500.667,73.8333 500.667,66.1667 500,58.5C 500.376,55.0249 501.709,52.0249 504,49.5C 506.333,50.5 508,52.1667 509,54.5C 509.902,59.6367 511.902,64.3034 515,68.5C 516.416,73.4153 517.416,78.4153 518,83.5C 520.637,81.7651 523.47,80.4318 526.5,79.5C 527.833,80.5 527.833,81.5 526.5,82.5C 520.123,84.4708 520.123,85.6375 526.5,86C 531.5,89.6667 536.5,93.3333 541.5,97C 545.079,100.675 547.745,104.842 549.5,109.5C 537.093,107.98 525.426,104.147 514.5,98C 512.433,95.3126 512.766,92.6459 515.5,90C 508.137,92.518 501.471,96.3513 495.5,101.5 Z"/></g>
  <g><path fill="currentColor" d="M 461.5,59.5 C 464.425,59.4598 467.091,60.2932 469.5,62C 473.281,65.2057 476.615,68.8724 479.5,73C 485.321,77.1572 490.154,82.3239 494,88.5C 494.825,90.7008 494.325,92.5341 492.5,94C 488.271,96.2986 483.771,97.7986 479,98.5C 477.188,98.5066 475.688,97.84 474.5,96.5C 471.295,89.6957 467.795,83.029 464,76.5C 462.838,70.8778 462.005,65.2112 461.5,59.5 Z"/></g>
  <g><path fill="currentColor" d="M 415.5,75.5 C 424.394,75.2802 431.394,78.7802 436.5,86C 446.81,90.3945 455.643,96.8945 463,105.5C 463.429,107.669 462.929,109.669 461.5,111.5C 457.069,116.05 451.736,119.05 445.5,120.5C 437.708,116.867 432.541,110.867 430,102.5C 422.026,95.2196 417.192,86.2196 415.5,75.5 Z"/></g>
  <g><path fill="currentColor" d="M 369.5,90.5 C 378.017,94.0917 386.35,98.2584 394.5,103C 397.978,106.299 400.978,109.966 403.5,114C 412.549,117.715 418.882,124.049 422.5,133C 419.667,140.504 414.667,146.171 407.5,150C 404.833,150.667 402.167,150.667 399.5,150C 390.563,141.052 384.063,130.552 380,118.5C 374.155,111.308 370.321,103.141 368.5,94C 368.648,92.7441 368.982,91.5774 369.5,90.5 Z"/></g>
  <g><path fill="currentColor" d="M 491.5,104.5 C 492.167,104.5 492.5,104.167 492.5,103.5C 493.167,103.5 493.5,103.167 493.5,102.5C 494.492,102.672 495.158,102.338 495.5,101.5C 501.068,98.6274 506.068,99.4608 510.5,104C 514.257,107.086 517.257,110.752 519.5,115C 521.917,116.626 524.417,118.126 527,119.5C 531.311,125.79 534.811,132.456 537.5,139.5C 531.933,139.48 526.6,138.313 521.5,136C 514.792,132.095 507.792,128.762 500.5,126C 496.508,122.669 492.175,119.836 487.5,117.5C 485.744,115.809 485.244,113.809 486,111.5C 487.371,108.734 489.204,106.401 491.5,104.5 Z"/></g>
  <g><path fill="currentColor" d="M 325.5,107.5 C 335.408,112.866 345.075,118.7 354.5,125C 357,128.833 359.5,132.667 362,136.5C 365.552,139.719 369.385,142.552 373.5,145C 377.714,149.546 381.547,154.379 385,159.5C 385.667,162.5 385.667,165.5 385,168.5C 378.48,176.412 370.48,182.079 361,185.5C 359.373,185.375 357.873,184.875 356.5,184C 351.295,177.092 346.462,169.926 342,162.5C 338.875,155.004 336.208,147.337 334,139.5C 327.862,131.595 324.362,122.595 323.5,112.5C 323.724,110.545 324.391,108.879 325.5,107.5 Z"/></g>
  <g><path fill="currentColor" d="M 471.5,119.5 C 474.649,119.211 477.649,119.711 480.5,121C 487.02,126.019 492.686,131.853 497.5,138.5C 502.05,140.546 505.883,143.546 509,147.5C 511.867,154.073 515.367,160.239 519.5,166C 515.611,167.745 511.611,167.745 507.5,166C 498.027,160.601 488.027,156.267 477.5,153C 469.729,149.033 462.562,144.2 456,138.5C 455.875,133.253 458.041,129.087 462.5,126C 465.567,123.812 468.567,121.645 471.5,119.5 Z"/></g>
  <g><path fill="currentColor" d="M 441.5,144.5 C 445.463,144.089 449.13,144.922 452.5,147C 460.747,151.911 467.747,158.245 473.5,166C 481.773,168.543 488.273,173.376 493,180.5C 496.67,187.176 500.836,193.509 505.5,199.5C 493.347,201.877 482.347,199.377 472.5,192C 465.003,189.367 457.336,187.367 449.5,186C 441.819,181.158 433.819,176.825 425.5,173C 422.03,169.663 421.53,165.83 424,161.5C 429.067,154.931 434.9,149.265 441.5,144.5 Z"/></g>
  <g><path fill="currentColor" d="M 262.5,147.5 C 276.168,152.354 289.168,158.854 301.5,167C 306.886,176.72 314.553,184.053 324.5,189C 329.7,193.865 334.533,199.032 339,204.5C 341.121,208.997 340.788,213.33 338,217.5C 332.148,224.017 325.648,229.85 318.5,235C 315.298,236.483 311.964,236.817 308.5,236C 301.913,229.337 296.413,221.837 292,213.5C 290.846,212.257 289.512,211.257 288,210.5C 284.608,202.991 281.608,195.325 279,187.5C 274.605,181.434 270.605,175.1 267,168.5C 264.072,161.79 262.572,154.79 262.5,147.5 Z"/></g>
  <g><path fill="currentColor" d="M 406.5,181.5 C 411.449,180.959 416.116,181.792 420.5,184C 430.19,189.006 438.523,195.673 445.5,204C 450.167,206 454.833,208 459.5,210C 468.674,219.299 476.341,229.465 482.5,240.5C 474.78,240.762 467.113,240.262 459.5,239C 452.956,236.778 446.623,234.112 440.5,231C 432.167,229.333 423.833,227.667 415.5,226C 407.495,221.436 399.161,217.436 390.5,214C 386.874,211.749 385.707,208.582 387,204.5C 389.941,199.228 393.274,194.228 397,189.5C 399.772,186.217 402.939,183.55 406.5,181.5 Z"/></g>
  <g><path fill="currentColor" d="M 181.5,189.5 C 198.844,196.454 215.844,204.288 232.5,213C 238.285,219.406 243.951,225.906 249.5,232.5C 264.888,240.385 278.055,251.051 289,264.5C 291.21,269.357 290.877,274.024 288,278.5C 280.734,290.101 271.234,299.268 259.5,306C 255.044,306.867 250.711,306.534 246.5,305C 238.902,296.738 232.068,287.905 226,278.5C 223.667,276.5 221.333,274.5 219,272.5C 213.393,260.953 208.059,249.286 203,237.5C 189.001,224.507 181.835,208.507 181.5,189.5 Z"/></g>
  <g><path fill="currentColor" d="M 369.5,227.5 C 372.187,227.336 374.854,227.503 377.5,228C 384.091,230.531 390.758,232.864 397.5,235C 403.062,237.894 408.062,241.561 412.5,246C 420.692,249.397 429.025,252.397 437.5,255C 449.08,263.244 459.747,272.578 469.5,283C 472.629,283.117 473.795,284.617 473,287.5C 461.684,290.843 450.184,291.343 438.5,289C 433.356,286.763 428.023,285.096 422.5,284C 397.552,284.192 373.552,279.525 350.5,270C 348.258,268.014 347.258,265.514 347.5,262.5C 350.57,247.999 357.904,236.332 369.5,227.5 Z"/></g>
  <g><path fill="currentColor" d="M 101.5,246.5 C 115.369,253.097 129.702,258.597 144.5,263C 153.994,266.908 162.66,272.075 170.5,278.5C 174.831,284.359 179.498,289.859 184.5,295C 195.966,300.9 206.966,307.566 217.5,315C 224,321.5 230.5,328 237,334.5C 240.398,341.807 239.732,348.807 235,355.5C 227.947,365.559 219.78,374.726 210.5,383C 197.956,391.715 187.122,389.881 178,377.5C 169.833,365.491 160.5,354.491 150,344.5C 143.333,331.167 136.667,317.833 130,304.5C 126.667,299.833 122.667,295.833 118,292.5C 110.728,281.287 105.061,269.287 101,256.5C 100.253,253.076 100.42,249.743 101.5,246.5 Z"/></g>
  <g><path fill="currentColor" d="M 325.5,292.5 C 340.278,292.964 354.612,295.797 368.5,301C 374.919,304.876 381.586,308.209 388.5,311C 397.51,312.394 406.51,313.727 415.5,315C 428.642,321.819 440.975,329.819 452.5,339C 468.686,344.917 468.352,349.584 451.5,353C 440.603,355.322 429.603,356.322 418.5,356C 413.526,354.117 408.359,353.284 403,353.5C 389.973,354.551 376.973,355.885 364,357.5C 350.007,354.601 335.84,352.768 321.5,352C 316.648,351.287 311.981,349.954 307.5,348C 306.299,347.097 305.465,345.931 305,344.5C 304.239,327.777 308.572,312.444 318,298.5C 320.478,296.361 322.978,294.361 325.5,292.5 Z"/></g>
  <g><path fill="currentColor" d="M -0.5,321.5 C 22.2674,328.11 45.2674,334.277 68.5,340C 82.3566,344.765 94.0233,352.765 103.5,364C 108.167,367.333 112.833,370.667 117.5,374C 143.806,381.732 166.639,395.232 186,414.5C 188.917,420.675 189.25,427.008 187,433.5C 180.181,447.81 171.848,461.143 162,473.5C 157.397,478.104 152.23,481.938 146.5,485C 143.262,486.368 139.928,486.701 136.5,486C 129.66,482.75 123.327,478.75 117.5,474C 109.552,466.383 101.885,458.383 94.5,450C 88.2426,445.287 82.076,440.454 76,435.5C 66.0583,419.894 55.725,404.56 45,389.5C 41.6852,385.182 37.5186,382.015 32.5,380C 18.4783,365.825 7.47828,349.659 -0.5,331.5C -0.5,328.167 -0.5,324.833 -0.5,321.5 Z"/></g>
  <g><path fill="currentColor" d="M 288.5,366.5 C 305.88,365.864 322.88,368.031 339.5,373C 346.167,375.667 352.833,378.333 359.5,381C 372.137,382.712 384.804,384.046 397.5,385C 410.517,389.107 422.517,395.107 433.5,403C 443.178,407.755 452.511,412.755 461.5,418C 459.354,421.124 456.354,423.124 452.5,424C 438.346,428.664 423.846,431.498 409,432.5C 404.05,432.592 399.216,431.925 394.5,430.5C 375.427,434.393 356.261,437.727 337,440.5C 335.189,439.922 333.355,439.422 331.5,439C 313.462,438.916 295.462,438.249 277.5,437C 273.501,436.332 270.668,434.165 269,430.5C 266.717,409.298 271.217,389.631 282.5,371.5C 284.544,369.781 286.544,368.114 288.5,366.5 Z"/></g>
  <g><path fill="currentColor" d="M 260.5,448.5 C 274.525,448.906 288.525,449.739 302.5,451C 318.018,454.713 333.352,459.046 348.5,464C 363.554,464.066 378.554,464.732 393.5,466C 400.5,468.333 407.5,470.667 414.5,473C 428.745,480.525 443.078,487.858 457.5,495C 462.097,496.586 466.764,497.919 471.5,499C 472.554,500.388 472.72,501.888 472,503.5C 458.309,511.954 443.476,517.454 427.5,520C 420.248,521.679 412.914,522.846 405.5,523.5C 399.926,521.936 394.259,521.436 388.5,522C 367.536,527.158 346.536,532.158 325.5,537C 319.099,537.56 312.765,537.06 306.5,535.5C 286.528,538.333 266.528,538.833 246.5,537C 240.841,536.004 237.007,532.838 235,527.5C 232.168,503.826 235.834,481.16 246,459.5C 249.514,454.003 254.348,450.337 260.5,448.5 Z"/></g>
</svg>